<svg width="49" height="48" viewBox="0 0 49 48" fill="none" xmlns="http://www.w3.org/2000/svg">
<g clip-path="url(#clip0_54_666)">
<path d="M11.2443 48H1.29286V15.9529H11.2443V48ZM6.26321 11.5813C3.08107 11.5813 0.5 8.94556 0.5 5.76334C0.5 4.23481 1.10719 2.76888 2.18801 1.68804C3.26882 0.607208 4.73471 0 6.26321 0C7.79171 0 9.25761 0.607208 10.3384 1.68804C11.4192 2.76888 12.0264 4.23481 12.0264 5.76334C12.0264 8.94556 9.44429 11.5813 6.26321 11.5813ZM48.4893 48H38.5593V32.3997C38.5593 28.6817 38.4843 23.9137 33.3854 23.9137C28.2114 23.9137 27.4186 27.9531 27.4186 32.1318V48H17.4779V15.9529H27.0221V20.3244H27.1614C28.49 17.8065 31.7354 15.1493 36.5771 15.1493C46.6486 15.1493 48.5 21.7816 48.5 30.396V48H48.4893Z" fill="#0A66C2"/>
</g>
<defs>
<clipPath id="clip0_54_666">
<rect width="48" height="48" fill="white" transform="translate(0.5)"/>
</clipPath>
</defs>
</svg>
