<svg width="49" height="48" viewBox="0 0 49 48" fill="none" xmlns="http://www.w3.org/2000/svg">
<g clip-path="url(#clip0_54_668)">
<path d="M24.5 0.594238C11.24 0.594238 0.5 11.3402 0.5 24.5942C0.5 35.2002 7.376 44.1942 16.91 47.3642C18.11 47.5902 18.55 46.8482 18.55 46.2102C18.55 45.6402 18.53 44.1302 18.52 42.1302C11.844 43.5782 10.436 38.9102 10.436 38.9102C9.344 36.1402 7.766 35.4002 7.766 35.4002C5.592 33.9122 7.934 33.9422 7.934 33.9422C10.344 34.1102 11.61 36.4142 11.61 36.4142C13.75 40.0842 17.228 39.0242 18.6 38.4102C18.816 36.8582 19.434 35.8002 20.12 35.2002C14.79 34.6002 9.188 32.5362 9.188 23.3402C9.188 20.7202 10.118 18.5802 11.658 16.9002C11.388 16.2942 10.578 13.8542 11.868 10.5482C11.868 10.5482 13.878 9.90424 18.468 13.0082C20.388 12.4742 22.428 12.2102 24.468 12.1982C26.508 12.2102 28.548 12.4742 30.468 13.0082C35.028 9.90424 37.038 10.5482 37.038 10.5482C38.328 13.8542 37.518 16.2942 37.278 16.9002C38.808 18.5802 39.738 20.7202 39.738 23.3402C39.738 32.5602 34.128 34.5902 28.788 35.1802C29.628 35.9002 30.408 37.3722 30.408 39.6202C30.408 42.8322 30.378 45.4122 30.378 46.1922C30.378 46.8222 30.798 47.5722 32.028 47.3322C41.63 44.1842 48.5 35.1842 48.5 24.5942C48.5 11.3402 37.754 0.594238 24.5 0.594238" fill="black" fill-opacity="0.9"/>
</g>
<defs>
<clipPath id="clip0_54_668">
<rect width="48" height="48" fill="white" transform="translate(0.5)"/>
</clipPath>
</defs>
</svg>
