<svg width="49" height="48" viewBox="0 0 49 48" fill="none" xmlns="http://www.w3.org/2000/svg">
<g clip-path="url(#clip0_54_667)">
<path fill-rule="evenodd" clip-rule="evenodd" d="M24.5002 11.6756C17.6935 11.6756 12.1758 17.1934 12.1758 24C12.1758 30.8064 17.6935 36.3242 24.5002 36.3242C31.3066 36.3242 36.8243 30.8064 36.8243 24C36.8243 17.1934 31.3066 11.6756 24.5002 11.6756ZM24.5002 31.9999C20.0818 31.9999 16.5001 28.4182 16.5001 24C16.5001 19.5817 20.0818 15.9999 24.5002 15.9999C28.9183 15.9999 32.5 19.5817 32.5 24C32.5 28.4182 28.9183 31.9999 24.5002 31.9999Z" fill="url(#paint0_linear_54_667)"/>
<path d="M37.3112 14.0687C38.9017 14.0687 40.1912 12.7793 40.1912 11.1887C40.1912 9.59812 38.9017 8.30878 37.3112 8.30878C35.7206 8.30878 34.4312 9.59812 34.4312 11.1887C34.4312 12.7793 35.7206 14.0687 37.3112 14.0687Z" fill="url(#paint1_linear_54_667)"/>
<path fill-rule="evenodd" clip-rule="evenodd" d="M24.5 0C17.9819 0 17.1646 0.0276562 14.6048 0.144469C12.0503 0.261 10.3056 0.666656 8.77897 1.26C7.20078 1.87331 5.86231 2.694 4.52816 4.02825C3.19391 5.36241 2.37322 6.70087 1.75991 8.27906C1.16656 9.80559 0.760906 11.5503 0.644375 14.1048C0.527562 16.6646 0.5 17.4819 0.5 24C0.5 30.5179 0.527562 31.3352 0.644375 33.895C0.760906 36.4495 1.16656 38.1942 1.75991 39.7207C2.37322 41.2989 3.19391 42.6374 4.52816 43.9717C5.86231 45.3059 7.20078 46.1266 8.77897 46.7399C10.3056 47.3332 12.0503 47.7389 14.6048 47.8554C17.1646 47.9722 17.9819 47.9998 24.5 47.9998C31.0179 47.9998 31.8352 47.9722 34.395 47.8554C36.9495 47.7389 38.6942 47.3332 40.2207 46.7399C41.7989 46.1266 43.1374 45.3059 44.4717 43.9717C45.8059 42.6374 46.6266 41.2989 47.2399 39.7207C47.8332 38.1942 48.2389 36.4495 48.3554 33.895C48.4722 31.3352 48.4998 30.5179 48.4998 24C48.4998 17.4819 48.4722 16.6646 48.3554 14.1048C48.2389 11.5503 47.8332 9.80559 47.2399 8.27906C46.6266 6.70087 45.8059 5.36241 44.4717 4.02825C43.1374 2.694 41.7989 1.87331 40.2207 1.26C38.6942 0.666656 36.9495 0.261 34.395 0.144469C31.8352 0.0276562 31.0179 0 24.5 0ZM24.5 4.32441C30.9082 4.32441 31.6673 4.34878 34.198 4.46428C36.5379 4.57106 37.8087 4.962 38.6544 5.29059C39.7746 5.72597 40.5741 6.24609 41.4139 7.08591C42.2538 7.92572 42.7738 8.72531 43.2092 9.84544C43.5379 10.6912 43.9288 11.9619 44.0356 14.3018C44.151 16.8326 44.1755 17.5917 44.1755 24C44.1755 30.4082 44.151 31.1673 44.0356 33.698C43.9288 36.0379 43.5379 37.3087 43.2092 38.1544C42.7738 39.2746 42.2538 40.0741 41.4139 40.9139C40.5741 41.7538 39.7746 42.2738 38.6544 42.7092C37.8087 43.0379 36.5379 43.4288 34.198 43.5355C31.6677 43.651 30.9087 43.6755 24.5 43.6755C18.0912 43.6755 17.3323 43.651 14.8018 43.5355C12.4619 43.4288 11.1912 43.0379 10.3454 42.7092C9.22522 42.2738 8.42572 41.7538 7.58581 40.9139C6.746 40.0741 6.22587 39.2746 5.79059 38.1544C5.46191 37.3087 5.07097 36.0379 4.96419 33.698C4.84869 31.1673 4.82431 30.4082 4.82431 24C4.82431 17.5917 4.84869 16.8326 4.96419 14.3018C5.07097 11.9619 5.46191 10.6912 5.79059 9.84544C6.22587 8.72531 6.746 7.92572 7.58581 7.08591C8.42572 6.24609 9.22522 5.72597 10.3454 5.29059C11.1912 4.962 12.4619 4.57106 14.8018 4.46428C17.3326 4.34878 18.0917 4.32441 24.5 4.32441Z" fill="url(#paint2_linear_54_667)"/>
</g>
<defs>
<linearGradient id="paint0_linear_54_667" x1="28.701" y1="-2.54328" x2="14.6743" y2="43.7973" gradientUnits="userSpaceOnUse">
<stop stop-color="#515BD4"/>
<stop offset="0.26" stop-color="#9510B8"/>
<stop offset="0.66" stop-color="#E51804"/>
<stop offset="1" stop-color="#FFBF00"/>
</linearGradient>
<linearGradient id="paint1_linear_54_667" x1="28.701" y1="-2.54328" x2="14.6743" y2="43.7973" gradientUnits="userSpaceOnUse">
<stop stop-color="#515BD4"/>
<stop offset="0.26" stop-color="#9510B8"/>
<stop offset="0.66" stop-color="#E51804"/>
<stop offset="1" stop-color="#FFBF00"/>
</linearGradient>
<linearGradient id="paint2_linear_54_667" x1="28.701" y1="-2.54328" x2="14.6743" y2="43.7973" gradientUnits="userSpaceOnUse">
<stop stop-color="#515BD4"/>
<stop offset="0.26" stop-color="#9510B8"/>
<stop offset="0.66" stop-color="#E51804"/>
<stop offset="1" stop-color="#FFBF00"/>
</linearGradient>
<clipPath id="clip0_54_667">
<rect width="48" height="48" fill="white" transform="translate(0.5)"/>
</clipPath>
</defs>
</svg>
