<svg width="49" height="40" viewBox="0 0 49 40" fill="none" xmlns="http://www.w3.org/2000/svg">
<path d="M15.595 39.501C33.7083 39.501 43.6155 24.4943 43.6155 11.4806C43.6155 11.0543 43.6155 10.63 43.5867 10.2076C45.5141 8.8135 47.1778 7.08736 48.5 5.10999C46.7028 5.9068 44.7961 6.4291 42.8437 6.65943C44.8996 5.42881 46.4383 3.493 47.1733 1.21239C45.2402 2.35961 43.1253 3.16804 40.9198 3.60279C39.435 2.02395 37.4712 0.978474 35.3324 0.628161C33.1935 0.277847 30.9988 0.642221 29.0879 1.6649C27.177 2.68757 25.6564 4.31154 24.7615 6.28549C23.8665 8.25944 23.6471 10.4733 24.1371 12.5846C20.2218 12.3881 16.3915 11.3706 12.8949 9.598C9.39831 7.82539 6.31353 5.33731 3.8408 2.29527C2.58146 4.46326 2.19574 7.02973 2.7622 9.47212C3.32865 11.9145 4.80468 14.0492 6.88976 15.4415C5.32246 15.3956 3.7893 14.9728 2.42 14.2089V14.3337C2.42062 16.6074 3.2077 18.8109 4.64774 20.5704C6.08778 22.3299 8.09212 23.5372 10.3208 23.9874C8.87096 24.3829 7.34975 24.4407 5.87408 24.1564C6.50363 26.113 7.72886 27.8241 9.37848 29.0503C11.0281 30.2765 13.0197 30.9566 15.0747 30.9954C13.0329 32.6004 10.6946 33.787 8.19375 34.4874C5.69287 35.1878 3.07843 35.3883 0.5 35.0774C5.00367 37.9674 10.2438 39.5004 15.595 39.4934" fill="#1DA1F2"/>
</svg>
